<mxfile host="app.diagrams.net" modified="2023-02-09T06:39:48.295Z" agent="5.0 (X11; Linux x86_64) AppleWebKit/537.36 (KHTML, like Gecko) Chrome/109.0.0.0 Safari/537.36" etag="Y-6ML2jMDG1RL0RT7kVG" version="20.8.18" type="github">
  <diagram name="Page-1" id="l7ck-4sQuxXnIJFQD8Lj">
    <mxGraphModel dx="979" dy="562" grid="1" gridSize="10" guides="1" tooltips="1" connect="1" arrows="1" fold="1" page="1" pageScale="1" pageWidth="850" pageHeight="1100" math="0" shadow="0">
      <root>
        <mxCell id="0" />
        <mxCell id="1" parent="0" />
        <mxCell id="5PlyCZqkEGDBcXISJoSr-1" value="User" style="shape=umlActor;verticalLabelPosition=bottom;verticalAlign=top;html=1;sketch=1;hachureGap=4;jiggle=2;curveFitting=1;fontFamily=Architects Daughter;fontSource=https%3A%2F%2Ffonts.googleapis.com%2Fcss%3Ffamily%3DArchitects%2BDaughter;fontSize=20;" parent="1" vertex="1">
          <mxGeometry x="100" y="290" width="30" height="60" as="geometry" />
        </mxCell>
        <mxCell id="5PlyCZqkEGDBcXISJoSr-4" value="Community Traffic Couter" style="swimlane;sketch=1;hachureGap=4;jiggle=2;curveFitting=1;fontFamily=Architects Daughter;fontSource=https%3A%2F%2Ffonts.googleapis.com%2Fcss%3Ffamily%3DArchitects%2BDaughter;fontSize=20;" parent="1" vertex="1">
          <mxGeometry x="240" y="70" width="440" height="800" as="geometry" />
        </mxCell>
        <mxCell id="5PlyCZqkEGDBcXISJoSr-8" value="&lt;font style=&quot;font-size: 16px;&quot;&gt;Login&lt;/font&gt;" style="ellipse;whiteSpace=wrap;html=1;sketch=1;hachureGap=4;jiggle=2;curveFitting=1;fontFamily=Architects Daughter;fontSource=https%3A%2F%2Ffonts.googleapis.com%2Fcss%3Ffamily%3DArchitects%2BDaughter;fontSize=20;" parent="5PlyCZqkEGDBcXISJoSr-4" vertex="1">
          <mxGeometry x="120" y="145" width="60" height="40" as="geometry" />
        </mxCell>
        <mxCell id="5PlyCZqkEGDBcXISJoSr-9" value="&lt;font style=&quot;font-size: 16px;&quot;&gt;Access data&lt;/font&gt;" style="ellipse;whiteSpace=wrap;html=1;sketch=1;hachureGap=4;jiggle=2;curveFitting=1;fontFamily=Architects Daughter;fontSource=https%3A%2F%2Ffonts.googleapis.com%2Fcss%3Ffamily%3DArchitects%2BDaughter;fontSize=20;" parent="5PlyCZqkEGDBcXISJoSr-4" vertex="1">
          <mxGeometry x="90" y="255" width="120" height="40" as="geometry" />
        </mxCell>
        <mxCell id="5PlyCZqkEGDBcXISJoSr-10" value="&lt;font style=&quot;font-size: 16px;&quot;&gt;Change Network Setting&lt;/font&gt;" style="ellipse;whiteSpace=wrap;html=1;sketch=1;hachureGap=4;jiggle=2;curveFitting=1;fontFamily=Architects Daughter;fontSource=https%3A%2F%2Ffonts.googleapis.com%2Fcss%3Ffamily%3DArchitects%2BDaughter;fontSize=20;" parent="5PlyCZqkEGDBcXISJoSr-4" vertex="1">
          <mxGeometry x="50" y="370" width="200" height="40" as="geometry" />
        </mxCell>
        <mxCell id="5PlyCZqkEGDBcXISJoSr-19" value="&lt;font style=&quot;font-size: 16px;&quot;&gt;Verify Password&amp;nbsp;&lt;/font&gt;" style="ellipse;whiteSpace=wrap;html=1;sketch=1;hachureGap=4;jiggle=2;curveFitting=1;fontFamily=Architects Daughter;fontSource=https%3A%2F%2Ffonts.googleapis.com%2Fcss%3Ffamily%3DArchitects%2BDaughter;fontSize=16;" parent="5PlyCZqkEGDBcXISJoSr-4" vertex="1">
          <mxGeometry x="250" y="60" width="160" height="30" as="geometry" />
        </mxCell>
        <mxCell id="oy0hdyuy9VU7nFTgplWp-1" value="&amp;lt;&amp;lt;include&amp;gt;&amp;gt;" style="edgeStyle=none;html=1;endArrow=open;verticalAlign=bottom;dashed=1;labelBackgroundColor=none;rounded=0;sketch=1;hachureGap=4;jiggle=2;curveFitting=1;fontFamily=Architects Daughter;fontSource=https%3A%2F%2Ffonts.googleapis.com%2Fcss%3Ffamily%3DArchitects%2BDaughter;fontSize=16;entryX=0;entryY=0.5;entryDx=0;entryDy=0;exitX=0.5;exitY=0;exitDx=0;exitDy=0;" edge="1" parent="5PlyCZqkEGDBcXISJoSr-4" source="5PlyCZqkEGDBcXISJoSr-8" target="5PlyCZqkEGDBcXISJoSr-19">
          <mxGeometry x="-0.3087" y="25" width="160" relative="1" as="geometry">
            <mxPoint x="200" y="130" as="sourcePoint" />
            <mxPoint x="360" y="130" as="targetPoint" />
            <mxPoint as="offset" />
          </mxGeometry>
        </mxCell>
        <mxCell id="5PlyCZqkEGDBcXISJoSr-13" value="" style="endArrow=none;html=1;rounded=0;sketch=1;hachureGap=4;jiggle=2;curveFitting=1;fontFamily=Architects Daughter;fontSource=https%3A%2F%2Ffonts.googleapis.com%2Fcss%3Ffamily%3DArchitects%2BDaughter;fontSize=16;entryX=0;entryY=0.5;entryDx=0;entryDy=0;exitX=1;exitY=0.3333333333333333;exitDx=0;exitDy=0;exitPerimeter=0;" parent="1" source="5PlyCZqkEGDBcXISJoSr-1" target="5PlyCZqkEGDBcXISJoSr-8" edge="1">
          <mxGeometry width="50" height="50" relative="1" as="geometry">
            <mxPoint x="160" y="420" as="sourcePoint" />
            <mxPoint x="210" y="370" as="targetPoint" />
          </mxGeometry>
        </mxCell>
        <mxCell id="5PlyCZqkEGDBcXISJoSr-14" value="" style="endArrow=none;html=1;rounded=0;sketch=1;hachureGap=4;jiggle=2;curveFitting=1;fontFamily=Architects Daughter;fontSource=https%3A%2F%2Ffonts.googleapis.com%2Fcss%3Ffamily%3DArchitects%2BDaughter;fontSize=16;entryX=0;entryY=0.5;entryDx=0;entryDy=0;exitX=1;exitY=0.3333333333333333;exitDx=0;exitDy=0;exitPerimeter=0;" parent="1" source="5PlyCZqkEGDBcXISJoSr-1" target="5PlyCZqkEGDBcXISJoSr-9" edge="1">
          <mxGeometry width="50" height="50" relative="1" as="geometry">
            <mxPoint x="260" y="280" as="sourcePoint" />
            <mxPoint x="210" y="340" as="targetPoint" />
          </mxGeometry>
        </mxCell>
        <mxCell id="5PlyCZqkEGDBcXISJoSr-15" value="" style="endArrow=none;html=1;rounded=0;sketch=1;hachureGap=4;jiggle=2;curveFitting=1;fontFamily=Architects Daughter;fontSource=https%3A%2F%2Ffonts.googleapis.com%2Fcss%3Ffamily%3DArchitects%2BDaughter;fontSize=16;entryX=0;entryY=0.5;entryDx=0;entryDy=0;exitX=1;exitY=0.3333333333333333;exitDx=0;exitDy=0;exitPerimeter=0;" parent="1" source="5PlyCZqkEGDBcXISJoSr-1" target="5PlyCZqkEGDBcXISJoSr-10" edge="1">
          <mxGeometry width="50" height="50" relative="1" as="geometry">
            <mxPoint x="130" y="260" as="sourcePoint" />
            <mxPoint x="90" y="510" as="targetPoint" />
          </mxGeometry>
        </mxCell>
        <mxCell id="5PlyCZqkEGDBcXISJoSr-17" value="Database" style="shape=umlActor;verticalLabelPosition=bottom;verticalAlign=top;html=1;outlineConnect=0;sketch=1;hachureGap=4;jiggle=2;curveFitting=1;fontFamily=Architects Daughter;fontSource=https%3A%2F%2Ffonts.googleapis.com%2Fcss%3Ffamily%3DArchitects%2BDaughter;fontSize=16;" parent="1" vertex="1">
          <mxGeometry x="750" y="290" width="30" height="60" as="geometry" />
        </mxCell>
        <mxCell id="5PlyCZqkEGDBcXISJoSr-18" value="" style="endArrow=none;html=1;rounded=0;sketch=1;hachureGap=4;jiggle=2;curveFitting=1;fontFamily=Architects Daughter;fontSource=https%3A%2F%2Ffonts.googleapis.com%2Fcss%3Ffamily%3DArchitects%2BDaughter;fontSize=16;entryX=0;entryY=0.3333333333333333;entryDx=0;entryDy=0;entryPerimeter=0;exitX=1;exitY=0.5;exitDx=0;exitDy=0;" parent="1" source="5PlyCZqkEGDBcXISJoSr-9" target="5PlyCZqkEGDBcXISJoSr-17" edge="1">
          <mxGeometry width="50" height="50" relative="1" as="geometry">
            <mxPoint x="520" y="380" as="sourcePoint" />
            <mxPoint x="570" y="330" as="targetPoint" />
          </mxGeometry>
        </mxCell>
      </root>
    </mxGraphModel>
  </diagram>
</mxfile>
